<?xml version="1.0" encoding="UTF-8" standalone="no"?>
<!-- Created with Inkscape (http://www.inkscape.org/) -->

<svg
   version="1.1"
   id="svg1"
   width="393"
   height="120"
   viewBox="0 0 393 120"
   sodipodi:docname="icono-cimientos-texto-sub-GRIS.svg"
   xml:space="preserve"
   inkscape:version="1.4.4 (dcaf3e7, 2026-05-05)"
   xmlns:inkscape="http://www.inkscape.org/namespaces/inkscape"
   xmlns:sodipodi="http://sodipodi.sourceforge.net/DTD/sodipodi-0.dtd"
   xmlns:xlink="http://www.w3.org/1999/xlink"
   xmlns="http://www.w3.org/2000/svg"
   xmlns:svg="http://www.w3.org/2000/svg"><defs
     id="defs1"><linearGradient
       id="linearGradient69"
       inkscape:collect="always"><stop
         style="stop-color:#c9cdd2;stop-opacity:1;"
         offset="0"
         id="stop67" /><stop
         style="stop-color:#9aa0a8;stop-opacity:1;"
         offset="0.7438786"
         id="stop68" /><stop
         style="stop-color:#6e747c;stop-opacity:1;"
         offset="1"
         id="stop69" /></linearGradient><linearGradient
       id="linearGradient63"
       inkscape:collect="always"><stop
         style="stop-color:#000000;stop-opacity:1;"
         offset="0"
         id="stop61" /><stop
         style="stop-color:#2e5c8a;stop-opacity:1;"
         offset="0.7438786"
         id="stop62" /><stop
         style="stop-color:#1e3a5f;stop-opacity:1;"
         offset="1"
         id="stop63" /></linearGradient><rect
       x="178.02618"
       y="157.77856"
       width="141.35126"
       height="24.831978"
       id="rect55" /><linearGradient
       id="linearGradient52"
       inkscape:collect="always"><stop
         style="stop-color:#000000;stop-opacity:1;"
         offset="0"
         id="stop52" /><stop
         style="stop-color:#3986b5;stop-opacity:1;"
         offset="0.7438786"
         id="stop54" /><stop
         style="stop-color:#63c6ff;stop-opacity:1;"
         offset="1"
         id="stop53" /></linearGradient><linearGradient
       inkscape:collect="always"
       xlink:href="#linearGradient52"
       id="linearGradient53"
       x1="21.07682"
       y1="280.08438"
       x2="136.76689"
       y2="98.945885"
       gradientUnits="userSpaceOnUse"
       gradientTransform="translate(171.6944,-58.952532)" /><linearGradient
       inkscape:collect="always"
       xlink:href="#linearGradient52"
       id="linearGradient58"
       gradientUnits="userSpaceOnUse"
       gradientTransform="translate(171.6944,-58.952532)"
       x1="21.07682"
       y1="280.08438"
       x2="136.76689"
       y2="98.945885" /><linearGradient
       inkscape:collect="always"
       xlink:href="#linearGradient52"
       id="linearGradient59"
       gradientUnits="userSpaceOnUse"
       gradientTransform="translate(171.6944,-58.952532)"
       x1="21.07682"
       y1="280.08438"
       x2="136.76689"
       y2="98.945885" /><linearGradient
       inkscape:collect="always"
       xlink:href="#linearGradient63"
       id="linearGradient54-8"
       gradientUnits="userSpaceOnUse"
       x1="21.07682"
       y1="280.08438"
       x2="136.76689"
       y2="98.945885"
       gradientTransform="translate(-4.2633911,-63.287423)" /><linearGradient
       inkscape:collect="always"
       xlink:href="#linearGradient69"
       id="linearGradient70"
       gradientUnits="userSpaceOnUse"
       gradientTransform="translate(-4.2633911,-63.287423)"
       x1="133.4774"
       y1="214.18045"
       x2="33.665642"
       y2="102.58475" /><linearGradient
       inkscape:collect="always"
       xlink:href="#linearGradient69"
       id="linearGradient1"
       gradientUnits="userSpaceOnUse"
       gradientTransform="matrix(1.1726003,0,0,1.1726003,-29.925445,-129.42764)"
       x1="133.4774"
       y1="214.18045"
       x2="33.665642"
       y2="102.58475" /><linearGradient
       inkscape:collect="always"
       xlink:href="#linearGradient69"
       id="linearGradient2"
       gradientUnits="userSpaceOnUse"
       gradientTransform="translate(-4.2633911,-63.287423)"
       x1="133.4774"
       y1="214.18045"
       x2="33.665642"
       y2="102.58475" /><linearGradient
       inkscape:collect="always"
       xlink:href="#linearGradient69"
       id="linearGradient3"
       gradientUnits="userSpaceOnUse"
       gradientTransform="translate(-4.2633911,-63.287423)"
       x1="133.4774"
       y1="214.18045"
       x2="33.665642"
       y2="102.58475" /><linearGradient
       inkscape:collect="always"
       xlink:href="#linearGradient69"
       id="linearGradient4"
       gradientUnits="userSpaceOnUse"
       gradientTransform="translate(-4.2633911,-63.287423)"
       x1="133.4774"
       y1="214.18045"
       x2="33.665642"
       y2="102.58475" /><linearGradient
       inkscape:collect="always"
       xlink:href="#linearGradient69"
       id="linearGradient5"
       gradientUnits="userSpaceOnUse"
       gradientTransform="translate(-4.2633911,-63.287423)"
       x1="133.4774"
       y1="214.18045"
       x2="33.665642"
       y2="102.58475" /></defs><sodipodi:namedview
     id="namedview1"
     pagecolor="#1e3a5f"
     bordercolor="#000000"
     borderopacity="0.25"
     inkscape:showpageshadow="2"
     inkscape:pageopacity="0.0"
     inkscape:pagecheckerboard="0"
     inkscape:deskcolor="#d1d1d1"
     inkscape:zoom="2.6175925"
     inkscape:cx="173.63283"
     inkscape:cy="85.001772"
     inkscape:window-width="1920"
     inkscape:window-height="1009"
     inkscape:window-x="-8"
     inkscape:window-y="-8"
     inkscape:window-maximized="1"
     inkscape:current-layer="g61"
     showguides="true" /><g
     inkscape:groupmode="layer"
     inkscape:label="Image"
     id="g1"><text
       xml:space="preserve"
       id="text55"
       style="writing-mode:lr-tb;direction:ltr;white-space:pre;shape-inside:url(#rect55);display:inline;fill:url(#linearGradient53);fill-opacity:1" /><text
       xml:space="preserve"
       style="font-style:normal;font-variant:normal;font-weight:normal;font-stretch:normal;font-size:37.3333px;line-height:0;font-family:'Leelawadee UI';-inkscape-font-specification:'Leelawadee UI';writing-mode:lr-tb;direction:ltr;fill:url(#linearGradient58);fill-opacity:1"
       x="244.11745"
       y="172.29572"
       id="text57"><tspan
         sodipodi:role="line"
         id="tspan57"
         style="fill:url(#linearGradient58)"
         x="244.11745"
         y="172.29572" /></text><text
       xml:space="preserve"
       style="font-style:normal;font-variant:normal;font-weight:normal;font-stretch:normal;font-size:37.3333px;line-height:0;font-family:'Leelawadee UI';-inkscape-font-specification:'Leelawadee UI';writing-mode:lr-tb;direction:ltr;fill:url(#linearGradient59);fill-opacity:1"
       x="298.77075"
       y="185.85378"
       id="text58"><tspan
         sodipodi:role="line"
         id="tspan58"
         style="fill:url(#linearGradient59)"
         x="298.77075"
         y="185.85378" /></text><g
       id="g61"
       transform="matrix(1.3684689,0,0,1.3684689,1.0849133,-39.45053)"><path
         style="fill:url(#linearGradient1);fill-opacity:1;stroke-width:1.60139"
         d="m 3.8735449,110.83542 c -4.39637154,-1.37294 -4.84111391,-4.25075 -0.9074364,-6.35988 1.9853695,-1.06451 35.1399485,-0.93197 138.9242815,-0.93197 121.79864,0 139.93881,-0.78752 141.5089,1.36751 1.83026,2.51209 1.90121,2.67748 -0.29541,5.3482 -1.74153,2.1175 -20.13388,0.8884 -140.89686,0.85672 C 53.919425,111.0929 6.3583557,111.61142 3.8735449,110.83542 Z"
         id="path44"
         sodipodi:nodetypes="sssssss" /><g
         id="g60"
         transform="matrix(1.1726002,0,0,1.1726002,-22.479663,-55.216789)"><g
           id="g58"
           transform="matrix(0.69046119,0,0,0.69046119,4.6506292,41.871925)"><path
             d="m 73.272899,57.867998 c -3.54482,0.19265 -6.97671,1.90416 -9,5.22265 -3.64377,5.97633 -1.85638,14.16275 3.75781,17.20898 10.54953,5.72411 21.86487,-4.9876 16.7207,-15.82812 -2.1777,-4.58917 -6.9209,-6.8512 -11.47851,-6.60351 z"
             id="path41"
             style="fill:url(#linearGradient2);fill-opacity:1" /><path
             d="m 114.87669,47.664548 c -0.42024,0.0582 -1.31043,1.93803 -1.99609,4.22656 -1.98037,6.60988 -6.40421,12.16072 -16.357421,20.52539 -17.76384,14.9287 -24.24849,23.148742 -27.29688,34.597662 -1.7598,6.60925 -1.75444,17.71003 0.0117,24.34375 0.50984,1.91498 0.82235,3.12572 0.90039,3.91406 h 6.4336 c -1.95628,-3.56294 0.67771,-19.2641 4.30859,-25.41797 3.16247,-5.35999 8.66678,-11.50609 17.73633,-19.806642 10.383151,-9.50277 9.416221,-7.30977 -2.97461,6.748052 -9.45208,10.72371 -14.47503,19.0201 -15.55859,25.69726 l -0.58985,3.63281 3.09766,-2.60546 c 1.70298,-1.43297 7.32467,-4.88509 12.49414,-7.67188 10.745041,-5.79249 18.417391,-12.24489 22.162111,-18.63477 6.70102,-11.434432 7.34943,-28.068372 1.62695,-41.798822 -1.7765,-4.2625 -3.56689,-7.75 -3.97851,-7.75 -0.006,0 -0.0129,-9.3e-4 -0.0195,0 z"
             id="path48"
             style="fill:url(#linearGradient3);fill-opacity:1" /><path
             d="m 37.306139,57.902458 c -1.34441,0.0588 -2.40545,2.67083 -4.07812,8.17772 -1.66459,5.48045 -2.01908,8.76249 -1.68555,15.61719 0.74879,15.389012 7.3971,25.208662 23.37109,34.515622 4.36934,2.54572 8.28281,4.63649 8.69531,4.64649 0.4125,0.01 0.75,-2.02234 0.75,-4.51563 0,-5.76153 -3.66197,-13.1278 -9.88476,-19.88476 -2.57448,-2.79547 -5.34131,-5.964462 -6.14844,-7.042972 -3.13779,-4.19284 4.83628,2.439432 10.93554,9.095702 l 6.05469,6.60742 1.03711,-2.87109 c 0.57108,-1.57922 1.76726,-4.54372 2.65821,-6.58789 1.46002,-3.34985 1.46896,-3.94203 0.0879,-6.000002 -2.53053,-3.7708 -5.43724,-6.49838 -14.78126,-13.86914 -6.29264,-4.96378 -9.98222,-8.77013 -12.57617,-12.97265 -2.01277,-3.26095 -3.32161,-4.96472 -4.43555,-4.91601 z"
             id="path47"
             style="fill:url(#linearGradient4);fill-opacity:1" /></g><g
           id="g59"
           transform="translate(4.8624535,-2.2546389)"><text
             xml:space="preserve"
             style="font-style:normal;font-variant:normal;font-weight:normal;font-stretch:normal;font-size:37.3333px;line-height:0;font-family:'Leelawadee UI';-inkscape-font-specification:'Leelawadee UI';writing-mode:lr-tb;direction:ltr;fill:url(#linearGradient5);fill-opacity:1"
             x="87.697479"
             y="112.95212"
             id="text56"><tspan
               sodipodi:role="line"
               id="tspan56"
               style="fill:url(#linearGradient5);fill-opacity:1"
               x="87.697479"
               y="112.95212">Cimientos</tspan></text><text
             xml:space="preserve"
             style="font-style:normal;font-variant:normal;font-weight:normal;font-stretch:normal;font-size:10.4139px;line-height:0;font-family:System-ui;-inkscape-font-specification:System-ui;text-align:center;writing-mode:lr-tb;direction:ltr;text-anchor:middle;fill:url(#linearGradient70);fill-opacity:1;stroke-width:0.930609"
             x="182.22673"
             y="117.50466"
             id="text59"
             transform="scale(0.93060732,1.0745671)"><tspan
               sodipodi:role="line"
               id="tspan59"
               x="182.22673"
               y="117.50466"
               style="font-size:10.4139px;fill:url(#linearGradient70);fill-opacity:1;stroke-width:0.930609">Consultora en Gestión Organizacional</tspan></text></g></g></g></g></svg>
